<svg xmlns="http://www.w3.org/2000/svg" viewBox="0 0 400 300">
  <defs>
    <linearGradient id="bg" x1="0%" y1="0%" x2="100%" y2="100%">
      <stop offset="0%" style="stop-color:#1B5E20"/>
      <stop offset="100%" style="stop-color:#2E7D32"/>
    </linearGradient>
    <linearGradient id="gold" x1="0%" y1="0%" x2="0%" y2="100%">
      <stop offset="0%" style="stop-color:#F0D060"/>
      <stop offset="100%" style="stop-color:#D4AF37"/>
    </linearGradient>
  </defs>
  <rect width="400" height="300" fill="url(#bg)"/>
  <!-- Tháp chùa nhiều tầng -->
  <rect x="175" y="80" width="50" height="110" rx="2" fill="none" stroke="url(#gold)" stroke-width="2"/>
  <rect x="170" y="78" width="60" height="8" rx="1" fill="none" stroke="url(#gold)" stroke-width="1.5"/>
  <rect x="170" y="115" width="60" height="5" rx="1" fill="none" stroke="url(#gold)" stroke-width="1"/>
  <rect x="170" y="148" width="60" height="5" rx="1" fill="none" stroke="url(#gold)" stroke-width="1"/>
  <!-- Mái -->
  <polygon points="162,78 200,55 238,78" fill="none" stroke="url(#gold)" stroke-width="2"/>
  <polygon points="172,55 200,40 228,55" fill="none" stroke="url(#gold)" stroke-width="1.5"/>
  <!-- Hoa sen dưới chùa -->
  <ellipse cx="200" cy="220" rx="35" ry="15" fill="none" stroke="url(#gold)" stroke-width="1.5" opacity="0.5"/>
  <path d="M180,220 Q200,190 220,220" fill="none" stroke="url(#gold)" stroke-width="1.5" opacity="0.5"/>
  <path d="M172,220 Q200,185 228,220" fill="none" stroke="url(#gold)" stroke-width="1" opacity="0.35"/>
  <path d="M165,220 Q200,180 235,220" fill="none" stroke="url(#gold)" stroke-width="1" opacity="0.25"/>
  <!-- Mây -->
  <path d="M50,120 Q80,110 110,120 Q140,130 170,120" fill="none" stroke="url(#gold)" stroke-width="1" opacity="0.2"/>
  <path d="M250,100 Q280,90 310,100 Q340,110 370,100" fill="none" stroke="url(#gold)" stroke-width="1" opacity="0.2"/>
</svg>