<svg xmlns="http://www.w3.org/2000/svg" viewBox="0 0 600 400">
  <defs>
    <linearGradient id="bg" x1="0%" y1="0%" x2="100%" y2="100%">
      <stop offset="0%" style="stop-color:#5D4037"/>
      <stop offset="100%" style="stop-color:#3E2723"/>
    </linearGradient>
    <linearGradient id="gold" x1="0%" y1="0%" x2="0%" y2="100%">
      <stop offset="0%" style="stop-color:#F0D060"/>
      <stop offset="100%" style="stop-color:#D4AF37"/>
    </linearGradient>
  </defs>
  <rect width="600" height="400" fill="url(#bg)"/>
  <!-- Núi Nghĩa Lĩnh -->
  <polygon points="150,350 300,100 450,350" fill="none" stroke="url(#gold)" stroke-width="2" opacity="0.3"/>
  <polygon points="50,350 180,180 310,350" fill="none" stroke="url(#gold)" stroke-width="1.5" opacity="0.2"/>
  <polygon points="320,350 440,170 560,350" fill="none" stroke="url(#gold)" stroke-width="1.5" opacity="0.2"/>
  <!-- Trống đồng lớn -->
  <circle cx="300" cy="180" r="70" fill="none" stroke="url(#gold)" stroke-width="2.5"/>
  <circle cx="300" cy="180" r="52" fill="none" stroke="url(#gold)" stroke-width="2"/>
  <circle cx="300" cy="180" r="35" fill="none" stroke="url(#gold)" stroke-width="1.5"/>
  <circle cx="300" cy="180" r="18" fill="none" stroke="url(#gold)" stroke-width="1.5"/>
  <!-- Mặt trời -->
  <circle cx="300" cy="180" r="7" fill="url(#gold)" opacity="0.5"/>
  <!-- 12 tia -->
  <line x1="300" y1="165" x2="300" y2="155" stroke="url(#gold)" stroke-width="1.5" opacity="0.5"/>
  <line x1="308" y1="166" x2="312" y2="157" stroke="url(#gold)" stroke-width="1.5" opacity="0.5"/>
  <line x1="313" y1="172" x2="320" y2="166" stroke="url(#gold)" stroke-width="1.5" opacity="0.5"/>
  <line x1="315" y1="180" x2="325" y2="180" stroke="url(#gold)" stroke-width="1.5" opacity="0.5"/>
  <line x1="313" y1="188" x2="320" y2="194" stroke="url(#gold)" stroke-width="1.5" opacity="0.5"/>
  <line x1="308" y1="194" x2="312" y2="203" stroke="url(#gold)" stroke-width="1.5" opacity="0.5"/>
  <line x1="300" y1="195" x2="300" y2="205" stroke="url(#gold)" stroke-width="1.5" opacity="0.5"/>
  <line x1="292" y1="194" x2="288" y2="203" stroke="url(#gold)" stroke-width="1.5" opacity="0.5"/>
  <line x1="287" y1="188" x2="280" y2="194" stroke="url(#gold)" stroke-width="1.5" opacity="0.5"/>
  <line x1="285" y1="180" x2="275" y2="180" stroke="url(#gold)" stroke-width="1.5" opacity="0.5"/>
  <line x1="287" y1="172" x2="280" y2="166" stroke="url(#gold)" stroke-width="1.5" opacity="0.5"/>
  <line x1="292" y1="166" x2="288" y2="157" stroke="url(#gold)" stroke-width="1.5" opacity="0.5"/>
  <!-- Chim Lạc bay -->
  <path d="M120,120 Q135,100 160,110 Q152,115 148,108" fill="none" stroke="url(#gold)" stroke-width="1.5" opacity="0.5"/>
  <path d="M440,100 Q455,80 480,90 Q472,95 468,88" fill="none" stroke="url(#gold)" stroke-width="1.5" opacity="0.5"/>
  <path d="M480,130 Q495,115 515,122 Q508,126 505,120" fill="none" stroke="url(#gold)" stroke-width="1.5" opacity="0.4"/>
  <!-- Bậc thang lên đền -->
  <line x1="280" y1="270" x2="320" y2="270" stroke="url(#gold)" stroke-width="1" opacity="0.3"/>
  <line x1="275" y1="285" x2="325" y2="285" stroke="url(#gold)" stroke-width="1" opacity="0.3"/>
  <line x1="270" y1="300" x2="330" y2="300" stroke="url(#gold)" stroke-width="1" opacity="0.3"/>
  <line x1="265" y1="315" x2="335" y2="315" stroke="url(#gold)" stroke-width="1" opacity="0.25"/>
</svg>