<svg xmlns="http://www.w3.org/2000/svg" viewBox="0 0 400 300">
  <defs>
    <linearGradient id="bg" x1="0%" y1="0%" x2="100%" y2="100%">
      <stop offset="0%" style="stop-color:#C0392B"/>
      <stop offset="100%" style="stop-color:#922B21"/>
    </linearGradient>
    <linearGradient id="gold" x1="0%" y1="0%" x2="0%" y2="100%">
      <stop offset="0%" style="stop-color:#F0D060"/>
      <stop offset="100%" style="stop-color:#D4AF37"/>
    </linearGradient>
  </defs>
  <rect width="400" height="300" fill="url(#bg)"/>
  <!-- Trống hội -->
  <ellipse cx="200" cy="150" rx="50" ry="50" fill="none" stroke="url(#gold)" stroke-width="2.5"/>
  <ellipse cx="200" cy="150" rx="35" ry="35" fill="none" stroke="url(#gold)" stroke-width="1.5"/>
  <circle cx="200" cy="150" r="8" fill="url(#gold)" opacity="0.4"/>
  <!-- Tia trống -->
  <line x1="200" y1="135" x2="200" y2="125" stroke="url(#gold)" stroke-width="1.5" opacity="0.4"/>
  <line x1="210" y1="137" x2="215" y2="128" stroke="url(#gold)" stroke-width="1.5" opacity="0.4"/>
  <line x1="213" y1="145" x2="222" y2="140" stroke="url(#gold)" stroke-width="1.5" opacity="0.4"/>
  <line x1="213" y1="155" x2="222" y2="160" stroke="url(#gold)" stroke-width="1.5" opacity="0.4"/>
  <line x1="200" y1="165" x2="200" y2="175" stroke="url(#gold)" stroke-width="1.5" opacity="0.4"/>
  <line x1="190" y1="163" x2="185" y2="172" stroke="url(#gold)" stroke-width="1.5" opacity="0.4"/>
  <line x1="187" y1="155" x2="178" y2="160" stroke="url(#gold)" stroke-width="1.5" opacity="0.4"/>
  <line x1="187" y1="145" x2="178" y2="140" stroke="url(#gold)" stroke-width="1.5" opacity="0.4"/>
  <line x1="190" y1="137" x2="185" y2="128" stroke="url(#gold)" stroke-width="1.5" opacity="0.4"/>
  <line x1="210" y1="163" x2="215" y2="172" stroke="url(#gold)" stroke-width="1.5" opacity="0.4"/>
  <!-- Cờ hội -->
  <line x1="100" y1="250" x2="100" y2="100" stroke="url(#gold)" stroke-width="1.5" opacity="0.5"/>
  <path d="M100,100 L130,110 L100,120" fill="url(#gold)" opacity="0.3"/>
  <line x1="300" y1="250" x2="300" y2="110" stroke="url(#gold)" stroke-width="1.5" opacity="0.5"/>
  <path d="M300,110 L330,120 L300,130" fill="url(#gold)" opacity="0.3"/>
  <!-- Hoa văn -->
  <path d="M50,260 Q100,245 150,260 Q200,275 250,260 Q300,245 350,260" fill="none" stroke="url(#gold)" stroke-width="1" opacity="0.2"/>
</svg>