<svg xmlns="http://www.w3.org/2000/svg" viewBox="0 0 400 300">
  <defs>
    <linearGradient id="bg" x1="0%" y1="0%" x2="100%" y2="100%">
      <stop offset="0%" style="stop-color:#C0392B"/>
      <stop offset="100%" style="stop-color:#922B21"/>
    </linearGradient>
    <linearGradient id="gold" x1="0%" y1="0%" x2="0%" y2="100%">
      <stop offset="0%" style="stop-color:#F0D060"/>
      <stop offset="100%" style="stop-color:#D4AF37"/>
    </linearGradient>
  </defs>
  <rect width="400" height="300" fill="url(#bg)"/>
  <!-- Chùa Dâu - tháp Hoà Phong -->
  <rect x="175" y="90" width="50" height="90" rx="2" fill="none" stroke="url(#gold)" stroke-width="2"/>
  <rect x="170" y="88" width="60" height="8" rx="1" fill="none" stroke="url(#gold)" stroke-width="1.5"/>
  <rect x="170" y="130" width="60" height="6" rx="1" fill="none" stroke="url(#gold)" stroke-width="1"/>
  <polygon points="165,88 200,65 235,88" fill="none" stroke="url(#gold)" stroke-width="2"/>
  <polygon points="175,65 200,50 225,65" fill="none" stroke="url(#gold)" stroke-width="1.5"/>
  <!-- Cửa tháp -->
  <path d="M190,180 Q200,162 210,180" fill="none" stroke="url(#gold)" stroke-width="1.5"/>
  <!-- Quan họ - nốt nhạc tượng trưng -->
  <circle cx="100" cy="130" r="6" fill="none" stroke="url(#gold)" stroke-width="1.5" opacity="0.5"/>
  <line x1="106" y1="130" x2="106" y2="105" stroke="url(#gold)" stroke-width="1.5" opacity="0.5"/>
  <circle cx="300" cy="120" r="6" fill="none" stroke="url(#gold)" stroke-width="1.5" opacity="0.5"/>
  <line x1="306" y1="120" x2="306" y2="95" stroke="url(#gold)" stroke-width="1.5" opacity="0.5"/>
  <!-- Hoa văn viền -->
  <path d="M50,250 Q80,235 110,250 Q140,265 170,250 Q200,235 230,250 Q260,265 290,250 Q320,235 350,250" fill="none" stroke="url(#gold)" stroke-width="1.5" opacity="0.25"/>
</svg>