<svg xmlns="http://www.w3.org/2000/svg" viewBox="0 0 400 300">
  <defs>
    <linearGradient id="bg" x1="0%" y1="0%" x2="100%" y2="100%">
      <stop offset="0%" style="stop-color:#1a2e1a"/>
      <stop offset="100%" style="stop-color:#2E7D32"/>
    </linearGradient>
    <linearGradient id="gold" x1="0%" y1="0%" x2="0%" y2="100%">
      <stop offset="0%" style="stop-color:#F0D060"/>
      <stop offset="100%" style="stop-color:#D4AF37"/>
    </linearGradient>
  </defs>
  <rect width="400" height="300" fill="url(#bg)"/>
  <!-- Núi Yên Tử -->
  <polygon points="150,250 200,100 250,250" fill="none" stroke="url(#gold)" stroke-width="2" opacity="0.5"/>
  <polygon points="80,250 140,150 200,250" fill="none" stroke="url(#gold)" stroke-width="1.5" opacity="0.3"/>
  <polygon points="220,250 290,130 360,250" fill="none" stroke="url(#gold)" stroke-width="1.5" opacity="0.3"/>
  <!-- Chùa trên đỉnh -->
  <rect x="188" y="95" width="24" height="15" rx="1" fill="none" stroke="url(#gold)" stroke-width="1.5"/>
  <path d="M182,95 Q200,80 218,95" fill="none" stroke="url(#gold)" stroke-width="1.5"/>
  <!-- Mây -->
  <path d="M60,130 Q80,120 100,130 Q120,140 140,130" fill="none" stroke="url(#gold)" stroke-width="1" opacity="0.3"/>
  <path d="M270,110 Q290,100 310,110 Q330,120 350,110" fill="none" stroke="url(#gold)" stroke-width="1" opacity="0.3"/>
  <!-- Sóng biển Hạ Long -->
  <path d="M0,270 Q30,260 60,270 Q90,280 120,270 Q150,260 180,270 Q210,280 240,270 Q270,260 300,270 Q330,280 360,270 Q390,260 400,265" fill="none" stroke="url(#gold)" stroke-width="1.5" opacity="0.4"/>
  <path d="M0,285 Q40,275 80,285 Q120,295 160,285 Q200,275 240,285 Q280,295 320,285 Q360,275 400,280" fill="none" stroke="url(#gold)" stroke-width="1" opacity="0.25"/>
  <!-- Hoa sen -->
  <ellipse cx="330" cy="200" rx="15" ry="8" fill="none" stroke="url(#gold)" stroke-width="1" opacity="0.4"/>
  <path d="M322,200 Q330,185 338,200" fill="none" stroke="url(#gold)" stroke-width="1" opacity="0.4"/>
</svg>